<?xml version="1.0" standalone="no"?>
<!DOCTYPE svg PUBLIC "-//W3C//DTD SVG 20010904//EN"
 "http://www.w3.org/TR/2001/REC-SVG-20010904/DTD/svg10.dtd">
<svg version="1.0" xmlns="http://www.w3.org/2000/svg"
 width="260.000000pt" height="260.000000pt" viewBox="0 0 260.000000 260.000000"
 preserveAspectRatio="xMidYMid meet">
<metadata>
Created by potrace 1.11, written by Peter Selinger 2001-2013
</metadata>
<g transform="translate(0.000000,260.000000) scale(0.100000,-0.100000)"
fill="#000000" stroke="none">
<path d="M1204 2585 c-30 -21 -47 -68 -40 -109 7 -35 66 -96 93 -96 25 0 12
-15 -30 -35 -81 -39 -104 -116 -50 -170 14 -14 28 -25 32 -26 3 0 19 -2 36 -4
47 -6 112 30 185 103 l68 68 80 -17 c44 -10 115 -32 158 -50 77 -32 145 -43
153 -24 11 28 -266 135 -383 147 -25 3 -31 9 -43 52 -10 34 -29 63 -64 98 -73
73 -147 97 -195 63z m132 -78 c44 -33 84 -84 84 -106 0 -29 -148 18 -185 59
-10 11 -17 31 -17 46 0 54 49 54 118 1z m84 -185 c0 -4 -13 -24 -30 -44 -50
-60 -147 -97 -178 -66 -31 31 1 77 72 102 44 15 136 21 136 8z"/>
<path d="M1030 2346 c-89 -24 -164 -52 -230 -86 -22 -11 -40 -16 -40 -11 0 5
-21 19 -47 32 -85 41 -212 29 -267 -26 -27 -27 -20 -90 13 -127 27 -30 35 -33
84 -32 l54 0 -13 -33 c-32 -76 -10 -135 57 -153 34 -9 45 -8 71 7 17 10 39 29
49 43 25 32 59 153 59 206 0 38 3 42 43 62 23 11 91 37 152 57 115 38 135 49
135 71 0 19 -20 17 -120 -10z m-347 -107 c34 -9 37 -12 25 -26 -22 -27 -110
-63 -155 -63 -45 0 -73 19 -73 49 0 50 94 68 203 40z m67 -168 c-21 -83 -65
-124 -114 -105 -42 16 12 133 85 182 l34 24 3 -28 c2 -15 -2 -48 -8 -73z"/>
<path d="M1997 2330 c-42 -37 -47 -53 -32 -111 l11 -46 -35 7 c-79 14 -130
-22 -133 -93 -3 -86 59 -121 222 -122 l115 -2 60 -81 c33 -45 75 -111 94 -147
36 -68 54 -78 59 -31 5 38 -38 118 -121 228 -68 89 -69 92 -58 127 18 60 19
93 4 150 -18 73 -49 120 -89 137 -47 20 -59 18 -97 -16z m97 -50 c33 -40 53
-117 48 -183 -5 -51 -113 71 -126 141 -4 24 -1 37 14 52 27 27 34 25 64 -10z
m-111 -170 c24 -11 59 -33 78 -49 l34 -29 -28 -11 c-36 -14 -67 -14 -122 0
-52 13 -85 41 -85 74 0 40 55 47 123 15z"/>
<path d="M441 1964 c-36 -30 -106 -133 -149 -220 -29 -58 -33 -62 -66 -62 -82
0 -208 -96 -222 -168 -9 -47 9 -83 53 -105 45 -22 88 -13 133 30 l38 36 6 -38
c15 -90 104 -126 168 -68 30 27 33 34 32 88 -1 63 -34 150 -79 209 l-25 33 21
38 c43 80 66 114 117 178 28 36 52 68 52 70 0 15 -53 1 -79 -21z m-233 -411
c-13 -25 -40 -60 -61 -76 -32 -26 -41 -29 -65 -21 -60 22 -10 108 93 160 l50
25 3 -22 c2 -11 -7 -41 -20 -66z m148 2 c40 -84 27 -165 -26 -165 -41 0 -66
132 -39 209 10 27 13 30 27 19 8 -7 26 -35 38 -63z"/>
<path d="M2436 1699 c-16 -12 -31 -38 -37 -65 l-11 -44 -30 25 c-16 14 -35 25
-41 26 -7 0 -19 2 -29 4 -25 5 -77 -32 -89 -63 -14 -36 -5 -86 21 -119 30 -38
128 -111 168 -124 25 -8 32 -16 33 -37 2 -47 -2 -182 -6 -201 -13 -66 -15
-121 -6 -121 6 0 23 19 38 43 26 41 27 46 28 194 l0 152 39 37 c72 70 105 195
71 267 -24 51 -100 65 -149 26z m106 -54 c15 -33 -3 -113 -39 -174 l-26 -44
-15 29 c-23 42 -22 152 1 187 23 36 63 37 79 2z m-203 -85 c51 -51 91 -160 59
-160 -23 0 -103 56 -126 88 -21 29 -29 81 -15 95 15 16 54 5 82 -23z"/>
<path d="M1568 1700 c-89 -27 -149 -100 -178 -217 -18 -72 -24 -82 -76 -130
-88 -81 -219 -118 -330 -93 -59 14 -72 -4 -51 -67 23 -69 12 -77 -105 -80 -50
-1 -93 -5 -96 -8 -10 -9 18 -81 50 -130 87 -133 211 -217 344 -232 225 -27
410 105 455 324 11 51 10 64 -1 78 -11 13 -15 14 -27 2 -7 -7 -15 -24 -18 -38
-13 -66 -19 -87 -38 -124 -32 -64 -65 -102 -120 -138 -65 -42 -120 -56 -212
-54 -57 2 -84 9 -136 34 -85 43 -175 129 -217 210 -12 21 -10 21 49 22 41 0
71 6 92 19 l32 18 45 -28 c84 -53 176 -64 253 -30 38 17 67 45 67 65 0 16 -34
12 -76 -9 -60 -30 -109 -30 -177 0 -46 20 -107 77 -107 99 0 3 28 6 63 6 119
-1 215 34 297 108 59 53 86 96 89 142 2 51 48 138 88 169 32 24 45 27 109 27
66 0 76 -3 110 -31 21 -16 51 -47 67 -67 l30 -36 -46 -51 c-72 -80 -94 -180
-69 -312 12 -63 7 -167 -12 -232 -36 -122 -146 -225 -331 -310 -104 -47 -147
-108 -147 -205 0 -171 151 -276 382 -266 41 1 89 6 107 10 28 6 33 4 47 -23
17 -33 91 -83 150 -102 48 -15 121 -8 146 15 11 10 23 33 26 52 14 73 -44 131
-134 135 -36 1 -39 3 -29 20 7 10 15 18 19 18 11 0 46 64 52 94 17 92 -112
140 -185 70 -32 -31 -94 -144 -104 -191 -3 -17 -12 -33 -18 -36 -36 -13 -190
-7 -244 10 -106 33 -175 129 -159 218 12 63 46 97 148 150 162 84 232 142 288
240 59 104 66 170 45 421 -6 72 -4 86 15 124 12 24 44 67 71 95 27 29 49 56
49 61 0 5 -28 40 -62 78 -91 101 -182 136 -280 106z m373 -1306 c32 -29 -6
-91 -90 -145 -25 -16 -51 -29 -58 -29 -35 0 9 112 63 160 39 34 59 37 85 14z
m24 -225 c53 -13 90 -49 80 -78 -8 -28 -43 -35 -96 -21 -46 13 -149 74 -149
89 0 21 98 27 165 10z"/>
<path d="M1623 1533 c-21 -8 -15 -51 7 -58 23 -7 49 9 46 28 -5 32 -23 43 -53
30z"/>
<path d="M182 1343 c-11 -34 -12 -222 -2 -270 7 -30 5 -38 -21 -60 -79 -71
-110 -253 -51 -306 41 -37 124 -23 156 26 9 13 18 41 20 63 3 21 5 40 5 42 1
2 16 -8 34 -21 92 -69 173 -49 193 46 7 34 -23 90 -61 115 -36 23 -171 72
-199 72 -9 0 -16 3 -17 8 0 4 -2 16 -5 27 -2 11 -5 70 -7 130 -3 93 -16 155
-31 155 -2 0 -8 -12 -14 -27z m184 -379 c56 -20 96 -64 92 -100 -7 -64 -101
-28 -170 65 -46 63 -25 72 78 35z m-150 -35 c16 -45 17 -128 1 -158 -14 -28
-48 -43 -68 -30 -23 14 -18 125 8 182 26 55 41 57 59 6z"/>
<path d="M2219 1005 c-60 -32 -63 -127 -10 -241 18 -38 38 -76 46 -84 13 -14
9 -23 -24 -73 -20 -31 -62 -84 -92 -118 -77 -88 -108 -149 -75 -149 21 0 147
139 207 230 50 74 56 79 90 80 83 0 211 100 225 175 20 108 -120 157 -193 67
-11 -14 -13 -13 -13 5 0 33 -28 90 -52 107 -28 20 -74 20 -109 1z m95 -68 c26
-56 6 -221 -25 -202 -16 11 -52 88 -60 130 -16 90 49 146 85 72z m221 -78 c14
-42 -78 -137 -148 -155 -33 -8 -35 12 -8 71 44 94 137 144 156 84z"/>
<path d="M327 724 c-21 -21 -5 -80 39 -145 49 -74 49 -74 106 -135 l38 -40
-21 -39 c-27 -50 -36 -149 -20 -208 19 -65 49 -97 96 -103 34 -5 45 -1 74 23
27 23 35 37 35 66 1 20 2 37 2 37 1 0 17 -6 36 -14 19 -8 41 -14 49 -12 58 10
89 44 91 99 1 37 -22 79 -61 106 -45 32 -152 72 -193 73 -49 1 -92 43 -185
183 -79 119 -78 117 -86 109z m398 -389 c55 -32 79 -66 71 -100 -9 -35 -60
-34 -102 3 -34 29 -94 109 -94 125 0 17 78 0 125 -28z m-131 -78 c31 -63 34
-117 6 -142 -44 -40 -83 16 -86 127 -4 102 1 116 31 88 12 -11 34 -44 49 -73z"/>
</g>
</svg>
